<svg width="44" height="73" viewBox="0 0 44 73" fill="none" xmlns="http://www.w3.org/2000/svg">
<g clip-path="url(#clip0_89_4)">
<path d="M44 41.2988L22 72.9415V55.109L44 41.2988V41.2988ZM32.34 52.4212L25.2777 56.8404V62.5611L32.34 52.4214V52.4212Z" fill="#5D89EE"/>
<path d="M0 41.2988L22 72.9415V55.109L0 41.2988ZM11.66 52.4212L18.7223 56.8404V62.5611L11.66 52.4214V52.4212Z" fill="#61FAEB"/>
<path d="M24.791 26.8315L39.3617 34.9007L39.8782 36.4708L38.1433 37.9768L24.791 30.5668V26.8315Z" fill="#FDA64E"/>
<path d="M19.2185 26.8315L4.64783 34.9007L4.13135 36.4708L5.86625 37.9768L19.2185 30.5668V26.8315Z" fill="#D8715F"/>
<path d="M22 0L44 37.4625L22 51.2386V0ZM25.2491 12.0174V45.4653L39.6217 36.4705L25.2491 12.0172V12.0174Z" fill="#FB7076"/>
<path d="M22 0L0 37.4625L22 51.2386V0ZM18.7509 12.0174V45.4653L4.37834 36.4707L18.7509 12.0174V12.0174Z" fill="#98E79C"/>
</g>
<defs>
<clipPath id="clip0_89_4">
<rect width="44" height="72.9756" fill="white"/>
</clipPath>
</defs>
</svg>
